<svg version="1.1" id="Layer_1" xmlns="http://www.w3.org/2000/svg" xmlns:xlink="http://www.w3.org/1999/xlink" x="0px" y="0px"
	 width="100%" viewBox="0 0 450 450" enable-background="new 0 0 450 450" xml:space="preserve">
<path fill="none" opacity="1.000000" stroke="#000000" stroke-linecap="round" stroke-linejoin="round" stroke-width="25.000000"
	d="
M255.000000,194.750000 
	C249.806335,193.159058 244.651398,193.970291 239.309006,195.035599 
	C236.021027,200.497162 235.516479,206.946304 234.139496,213.031570 
	C232.469025,220.413818 230.824631,227.289795 224.657974,232.680710 
	C221.521530,235.422607 218.956131,238.722839 215.019318,240.541824 
	C212.828049,241.554276 210.770218,241.586380 208.493973,241.024384 
	C198.590759,238.579361 191.013351,233.702209 188.422684,223.018753 
	C187.842178,220.624908 188.283859,218.324966 188.000000,216.000000 
"/>
<path fill="none" opacity="1.000000" stroke="#000000" stroke-linecap="round" stroke-linejoin="round" stroke-width="5.000000"
	d="
M212.500000,242.000000 
	C211.990219,248.889465 211.413696,255.644318 208.169998,262.085602 
	C206.383652,265.632874 208.162750,267.524750 212.000000,268.000000 
"/>
<path fill="none" opacity="1.000000" stroke="#000000" stroke-linecap="round" stroke-linejoin="round" stroke-width="5.000000"
	d="
M222.000000,243.500000 
	C224.581390,250.674774 229.107285,257.276764 228.056274,265.507172 
	C227.677338,268.474670 230.179657,267.945892 232.000000,268.000000 
"/>
<path fill="none" opacity="1.000000" stroke="#000000" stroke-linecap="round" stroke-linejoin="round" stroke-width="5.000000"
	d="
M248.000000,228.000000 
	C248.443192,224.890137 247.121704,223.778717 243.997086,223.945343 
	C239.842224,224.166885 235.666672,224.000000 231.500000,224.000000 
"/>
<path fill="none" opacity="1.000000" stroke="#000000" stroke-linecap="round" stroke-linejoin="round" stroke-width="5.000000"
	d="
M242.000000,210.000000 
	C246.276871,213.395279 251.305878,211.525543 256.000000,212.000000 
"/>
<path fill="none" opacity="1.000000" stroke="#000000" stroke-linecap="round" stroke-linejoin="round" stroke-width="11.000000"
	d="
M57.000000,46.000000 
	C47.482746,48.713570 46.007786,50.650547 46.001507,60.500000 
	C45.994816,71.000000 45.704227,81.510597 46.080029,91.997131 
	C46.486717,103.345497 48.654469,105.517914 60.002853,105.919289 
	C70.656189,106.296074 81.343811,106.296082 91.997147,105.919289 
	C103.345528,105.517921 105.517921,103.345528 105.919289,91.997147 
	C106.296074,81.343811 106.296074,70.656189 105.919289,60.002853 
	C105.517921,48.654484 103.345650,46.459812 91.997223,46.083920 
	C80.509827,45.703426 69.000000,46.000000 57.500000,46.000000 
"/>
<path fill="none" opacity="1.000000" stroke="#000000" stroke-linecap="round" stroke-linejoin="round" stroke-width="11.000000"
	d="
M357.000000,46.000000 
	C347.482758,48.713570 346.007782,50.650551 346.001495,60.500000 
	C345.994812,71.000000 345.704193,81.510597 346.080017,91.997131 
	C346.486694,103.345497 348.654480,105.517921 360.002869,105.919296 
	C370.656189,106.296082 381.343811,106.296074 391.997131,105.919289 
	C403.345520,105.517914 405.517914,103.345551 405.919281,91.997147 
	C406.296082,81.343811 406.296082,70.656197 405.919281,60.002853 
	C405.517914,48.654472 403.345642,46.459812 391.997223,46.083920 
	C380.509827,45.703426 369.000000,46.000000 357.500000,46.000000 
"/>
<path fill="none" opacity="1.000000" stroke="#000000" stroke-linecap="round" stroke-linejoin="round" stroke-width="11.000000"
	d="
M57.000000,346.000000 
	C47.482746,348.713562 46.007782,350.650543 46.001507,360.500000 
	C45.994816,371.000000 45.704231,381.510590 46.080029,391.997131 
	C46.486717,403.345490 48.654472,405.517914 60.002857,405.919281 
	C70.656189,406.296082 81.343811,406.296082 91.997147,405.919281 
	C103.345535,405.517914 105.517914,403.345520 105.919281,391.997131 
	C106.296074,381.343811 106.296074,370.656189 105.919289,360.002869 
	C105.517914,348.654449 103.345650,346.459808 91.997223,346.083893 
	C80.509827,345.703400 69.000000,346.000000 57.500000,346.000000 
"/>
</svg>